<svg width="68" height="80" viewBox="0 0 68 80" fill="none" xmlns="http://www.w3.org/2000/svg">
<path fill-rule="evenodd" clip-rule="evenodd" d="M6.18182 9.23077C6.18182 7.53145 7.56568 6.15385 9.27273 6.15385H43.8031C44.6228 6.15385 45.409 6.47803 45.9886 7.05508L60.9132 21.9118C61.4924 22.4888 61.8182 23.2714 61.8182 24.0874V70.7692C61.8182 72.4683 60.4341 73.8462 58.7273 73.8462H9.27273C7.56568 73.8462 6.18182 72.4683 6.18182 70.7692V9.23077ZM9.27273 0C4.15152 0 0 4.13274 0 9.23077V70.7692C0 75.8671 4.15152 80 9.27273 80H58.7273C63.8483 80 68 75.8671 68 70.7692V24.0874C68 21.6393 67.0233 19.2914 65.2843 17.5603L50.3596 2.70363C48.6209 0.972554 46.2623 0 43.8031 0H9.27273ZM15.4545 18.4615C13.7475 18.4615 12.3636 19.8391 12.3636 21.5385C12.3636 23.2378 13.7475 24.6154 15.4545 24.6154H34C35.707 24.6154 37.0909 23.2378 37.0909 21.5385C37.0909 19.8391 35.707 18.4615 34 18.4615H15.4545ZM15.4545 36.9231C13.7475 36.9231 12.3636 38.3007 12.3636 40C12.3636 41.6993 13.7475 43.0769 15.4545 43.0769H52.5455C54.2523 43.0769 55.6364 41.6993 55.6364 40C55.6364 38.3007 54.2523 36.9231 52.5455 36.9231H15.4545ZM15.4545 55.3846C13.7475 55.3846 12.3636 56.7625 12.3636 58.4615C12.3636 60.1606 13.7475 61.5385 15.4545 61.5385H52.5455C54.2523 61.5385 55.6364 60.1606 55.6364 58.4615C55.6364 56.7625 54.2523 55.3846 52.5455 55.3846H15.4545Z" fill="#ECECEC"/>
</svg>
