<svg width="10" height="20" viewBox="0 0 10 20" fill="none" xmlns="http://www.w3.org/2000/svg">
<path d="M8.63636 4.54545V15C8.63636 15.9644 8.25325 16.8893 7.5713 17.5713C6.88935 18.2532 5.96442 18.6364 5 18.6364C4.03558 18.6364 3.11065 18.2532 2.4287 17.5713C1.74675 16.8893 1.36364 15.9644 1.36364 15V3.63636C1.36364 3.0336 1.60308 2.45552 2.0293 2.0293C2.45552 1.60308 3.0336 1.36364 3.63636 1.36364C4.23913 1.36364 4.81721 1.60308 5.24342 2.0293C5.66964 2.45552 5.90909 3.0336 5.90909 3.63636V13.1818C5.90909 13.4229 5.81331 13.6542 5.64282 13.8246C5.47234 13.9951 5.24111 14.0909 5 14.0909C4.75889 14.0909 4.52766 13.9951 4.35718 13.8246C4.18669 13.6542 4.09091 13.4229 4.09091 13.1818V4.54545H2.72727V13.1818C2.72727 13.7846 2.96672 14.3627 3.39294 14.7889C3.81916 15.2151 4.39724 15.4545 5 15.4545C5.60277 15.4545 6.18084 15.2151 6.60706 14.7889C7.03328 14.3627 7.27273 13.7846 7.27273 13.1818V3.63636C7.27273 2.67194 6.88961 1.74702 6.20766 1.06507C5.52571 0.383116 4.60079 0 3.63636 0C2.67194 0 1.74702 0.383116 1.06507 1.06507C0.383116 1.74702 0 2.67194 0 3.63636V15C0 16.3261 0.526784 17.5979 1.46447 18.5355C2.40215 19.4732 3.67392 20 5 20C6.32608 20 7.59785 19.4732 8.53553 18.5355C9.47322 17.5979 10 16.3261 10 15V4.54545H8.63636Z" fill="#909090"/>
</svg>
