<svg width="34" height="34" viewBox="0 0 34 34" fill="none" xmlns="http://www.w3.org/2000/svg">
<path d="M33.9221 17.9478L29.628 5.67942C29.033 3.97658 27.4193 2.83192 25.6158 2.83192H18.4174V1.41667C18.4174 0.634667 17.7842 0 17.0007 0C16.2173 0 15.584 0.634667 15.584 1.41667V2.83333H8.3856C6.58211 2.83333 4.96846 3.978 4.37343 5.67942L0.0793366 17.9478C0.0269178 18.0979 0 18.8431 0 18.8431C0 22.3932 2.65069 25.313 6.03525 25.4901C7.79341 25.5878 9.48356 24.9645 10.7643 23.749C12.028 22.5505 12.7505 20.8647 12.7505 19.125C12.7505 19.125 12.7208 18.088 12.6641 17.9322L8.20851 5.678C8.26659 5.67092 8.3261 5.66667 8.3856 5.66667H15.584V31.1667H7.08363C6.30018 31.1667 5.6669 31.8013 5.6669 32.5833C5.6669 33.3653 6.30018 34 7.08363 34H26.9178C27.7012 34 28.3345 33.3653 28.3345 32.5833C28.3345 31.8013 27.7012 31.1667 26.9178 31.1667H18.4174V5.66667H25.6158C25.6753 5.66667 25.7348 5.6695 25.7929 5.678L21.3359 17.9322C21.2792 18.0866 21.2495 19.125 21.2495 19.125C21.2495 20.8661 21.9734 22.5505 23.2357 23.749C24.4328 24.8852 25.8255 25.4901 27.9662 25.4901C31.3536 25.4901 34 22.3932 34 18.8431C34 18.8431 33.9745 18.0979 33.9221 17.9478ZM6.18259 22.6624C4.65111 22.5817 3.36897 21.3846 2.97229 19.8333H9.84624C9.70457 20.5403 9.35039 21.1848 8.81345 21.6934C8.10225 22.3692 7.16438 22.712 6.18401 22.661L6.18259 22.6624ZM9.31072 17H3.41289L6.30585 8.73658L9.31072 17ZM27.6956 8.73658L30.5885 17H24.6907L27.6956 8.73658ZM27.8202 22.6624C26.8455 22.7134 25.902 22.3706 25.1894 21.6948C24.6524 21.1848 24.2983 20.5403 24.1566 19.8348H31.0305C30.6339 21.3846 29.3531 22.5831 27.8217 22.6638L27.8202 22.6624Z" fill="#B50000"/>
</svg>
