<svg width="27" height="26" viewBox="0 0 27 26" fill="none" xmlns="http://www.w3.org/2000/svg">
<path d="M13.5 2.33068C17.1045 2.33068 17.532 2.34362 18.9551 2.40614C20.4266 2.47082 21.942 2.79207 23.0141 3.81943C24.0964 4.85648 24.4215 6.29456 24.489 7.70893C24.5542 9.07262 24.5677 9.48227 24.5677 12.9362C24.5677 16.3902 24.5542 16.7999 24.489 18.1636C24.4226 19.5661 24.0795 21.0322 23.0141 22.0531C21.9319 23.0901 20.4323 23.4017 18.9551 23.4664C17.532 23.5289 17.1045 23.5418 13.5 23.5418C9.8955 23.5418 9.468 23.5289 8.04488 23.4664C6.5925 23.4027 5.04225 23.0664 3.98587 22.0531C2.90925 21.0214 2.5785 19.5693 2.511 18.1636C2.44575 16.7999 2.43225 16.3902 2.43225 12.9362C2.43225 9.48227 2.44575 9.07262 2.511 7.70893C2.57738 6.31181 2.92387 4.83708 3.98587 3.81943C5.06588 2.78453 6.57225 2.47082 8.04488 2.40614C9.468 2.34362 9.8955 2.33068 13.5 2.33068ZM13.5 0C9.83362 0 9.3735 0.0150923 7.9335 0.0776175C5.84662 0.169249 3.77437 0.725508 2.26575 2.17113C0.7515 3.62215 0.176625 5.60355 0.081 7.6022C0.01575 8.98207 0 9.42298 0 12.9362C0 16.4495 0.01575 16.8904 0.081 18.2703C0.176625 20.2679 0.759375 22.259 2.26575 23.7014C3.77887 25.1513 5.85 25.7032 7.9335 25.7949C9.3735 25.8574 9.83362 25.8725 13.5 25.8725C17.1664 25.8725 17.6265 25.8574 19.0665 25.7949C21.1523 25.7032 23.2267 25.1459 24.7342 23.7014C26.2496 22.2493 26.8234 20.2689 26.919 18.2703C26.9842 16.8904 27 16.4495 27 12.9362C27 9.42298 26.9842 8.98207 26.919 7.6022C26.8234 5.60247 26.2418 3.61568 24.7342 2.17113C23.2234 0.723352 21.1466 0.168171 19.0665 0.0776175C17.6265 0.0150923 17.1664 0 13.5 0Z" fill="white"/>
<path d="M13.5001 6.29346C9.67175 6.29346 6.56787 9.26772 6.56787 12.9362C6.56787 16.6047 9.67175 19.579 13.5001 19.579C17.3285 19.579 20.4324 16.6047 20.4324 12.9362C20.4324 9.26772 17.3285 6.29346 13.5001 6.29346ZM13.5001 17.2483C11.015 17.2483 9.00012 15.3176 9.00012 12.9362C9.00012 10.5549 11.015 8.62414 13.5001 8.62414C15.9852 8.62414 18.0001 10.5549 18.0001 12.9362C18.0001 15.3176 15.9852 17.2483 13.5001 17.2483Z" fill="white"/>
<path d="M20.7067 7.58273C21.6014 7.58273 22.3267 6.88772 22.3267 6.03038C22.3267 5.17304 21.6014 4.47803 20.7067 4.47803C19.812 4.47803 19.0867 5.17304 19.0867 6.03038C19.0867 6.88772 19.812 7.58273 20.7067 7.58273Z" fill="white"/>
</svg>
