<svg width="23" height="27" viewBox="0 0 23 27" fill="none" xmlns="http://www.w3.org/2000/svg">
<path d="M11.5 26.2834L10.7023 25.6392C9.60253 24.7717 0 16.9592 0 11.2445C0 5.26128 5.14874 0.410889 11.5 0.410889C17.8513 0.410889 23 5.26128 23 11.2445C23 16.9592 13.3975 24.7718 12.3023 25.6435L11.5 26.2834ZM11.5 2.75343C6.52442 2.75874 2.49232 6.55719 2.48669 11.2445C2.48669 14.8346 8.39454 20.5697 11.5 23.1946C14.6055 20.5686 20.5133 14.8302 20.5133 11.2445C20.5077 6.55719 16.4756 2.75879 11.5 2.75343Z" fill="white"/>
<path d="M11.5 15.7428C9.01472 15.7428 7 13.8122 7 11.4307C7 9.04924 9.01472 7.11865 11.5 7.11865C13.9853 7.11865 16 9.04924 16 11.4307C16 13.8122 13.9853 15.7428 11.5 15.7428ZM11.5 9.27464C10.2574 9.27464 9.25 10.2399 9.25 11.4307C9.25 12.6214 10.2574 13.5867 11.5 13.5867C12.7426 13.5867 13.75 12.6214 13.75 11.4307C13.75 10.2399 12.7427 9.27464 11.5 9.27464Z" fill="white"/>
</svg>
