<svg width="25" height="20" viewBox="0 0 25 20" fill="none" xmlns="http://www.w3.org/2000/svg">
<path d="M4.63158 0.989014H20.3684C21.3316 0.989014 22.2553 1.37265 22.9363 2.05553C23.6174 2.73841 24 3.66459 24 4.63033V15.5543C24 16.52 23.6174 17.4462 22.9363 18.1291C22.2553 18.8119 21.3316 19.1956 20.3684 19.1956H4.63158C3.66842 19.1956 2.74472 18.8119 2.06367 18.1291C1.38261 17.4462 1 16.52 1 15.5543V4.63033C1 3.66459 1.38261 2.73841 2.06367 2.05553C2.74472 1.37265 3.66842 0.989014 4.63158 0.989014ZM4.63158 2.20279C4.02632 2.20279 3.49368 2.40913 3.08211 2.77326L12.5 8.87853L21.9179 2.77326C21.5063 2.40913 20.9737 2.20279 20.3684 2.20279H4.63158ZM12.5 10.3472L2.36789 3.75641C2.27105 4.02344 2.21053 4.32688 2.21053 4.63033V15.5543C2.21053 16.1981 2.4656 16.8155 2.91964 17.2708C3.37367 17.7261 3.98948 17.9818 4.63158 17.9818H20.3684C21.0105 17.9818 21.6263 17.7261 22.0804 17.2708C22.5344 16.8155 22.7895 16.1981 22.7895 15.5543V4.63033C22.7895 4.32688 22.7289 4.02344 22.6321 3.75641L12.5 10.3472Z" fill="white" stroke="white"/>
</svg>
