<svg width="250" height="92" viewBox="0 0 250 92" fill="none" xmlns="http://www.w3.org/2000/svg">
<path d="M244.978 68.5704H4.45384C3.27298 68.5692 2.14085 68.0995 1.30586 67.2645C0.470865 66.4296 0.0012391 65.2974 0 64.1166V4.45387C0.00154814 3.27311 0.471289 2.14115 1.30622 1.30622C2.14115 0.471289 3.27307 0.00154814 4.45384 0H244.978C246.159 0.00154814 247.291 0.471289 248.126 1.30622C248.961 2.14115 249.431 3.27311 249.432 4.45387V64.1177C249.431 65.2985 248.961 66.4305 248.126 67.2654C247.291 68.1003 246.159 68.5701 244.978 68.5716V68.5704ZM4.45384 1.78105C3.74516 1.78167 3.06569 2.06347 2.56458 2.56458C2.06347 3.06569 1.78167 3.74516 1.78105 4.45384V64.1177C1.78167 64.8264 2.06347 65.5059 2.56458 66.007C3.06569 66.5081 3.74516 66.7899 4.45384 66.7905H244.978C245.687 66.7899 246.366 66.5081 246.868 66.007C247.369 65.5059 247.65 64.8264 247.651 64.1177V4.45384C247.65 3.74516 247.369 3.06569 246.868 2.56458C246.366 2.06347 245.687 1.78167 244.978 1.78105H4.45384Z" fill="#E6E6E6" fill-opacity="0.5"/>
<path d="M79.1111 24C78.286 24 77.4946 24.2633 76.9112 24.7319C76.3278 25.2006 76 25.8363 76 26.4991C76 27.1619 76.3278 27.7975 76.9112 28.2662C77.4946 28.7349 78.286 28.9982 79.1111 28.9982H225.769C226.594 29.0235 227.397 28.7847 228.003 28.3343C228.608 27.8838 228.966 27.2586 228.998 26.5961C229.029 25.9337 228.732 25.2883 228.171 24.802C227.61 24.3156 226.832 24.0281 226.007 24.0027C225.962 24.0013 225.916 24.0007 225.871 24.0009L79.1111 24Z" fill="#E6E6E6" fill-opacity="0.5"/>
<path d="M79.1111 40C78.286 40 77.4946 40.2633 76.9112 40.7319C76.3278 41.2006 76 41.8363 76 42.4991C76 43.1619 76.3278 43.7975 76.9112 44.2662C77.4946 44.7349 78.286 44.9982 79.1111 44.9982H225.769C226.594 45.0235 227.397 44.7847 228.003 44.3343C228.608 43.8838 228.966 43.2586 228.998 42.5961C229.029 41.9337 228.732 41.2883 228.171 40.802C227.61 40.3156 226.832 40.0281 226.007 40.0027C225.962 40.0013 225.916 40.0007 225.871 40.0009L79.1111 40Z" fill="#E6E6E6" fill-opacity="0.5"/>
<path d="M34.4611 52.6273C44.7928 52.6273 53.1683 44.2518 53.1683 33.9201C53.1683 23.5884 44.7928 15.2129 34.4611 15.2129C24.1294 15.2129 15.7539 23.5884 15.7539 33.9201C15.7539 44.2518 24.1294 52.6273 34.4611 52.6273Z" fill="#0066FF" fill-opacity="0.2"/>
<path d="M27.7759 26.9301L26.04 28.666L40.5782 43.2041L42.3141 41.4682L27.7759 26.9301Z" fill="white"/>
<path d="M42.314 28.6656L40.5781 26.9297L26.04 41.4678L27.7759 43.2037L42.314 28.6656Z" fill="white"/>
<path d="M62.669 81.7273V89H61.6605L57.9638 83.6662H57.8963V89H56.799V81.7273H57.8146L61.5149 87.0682H61.5824V81.7273H62.669ZM66.5353 89.1101C65.9979 89.1101 65.5351 88.9953 65.1468 88.7656C64.7609 88.5336 64.4627 88.2081 64.252 87.7891C64.0436 87.3677 63.9395 86.8741 63.9395 86.3082C63.9395 85.7495 64.0436 85.2571 64.252 84.831C64.4627 84.4048 64.7562 84.0722 65.1326 83.8331C65.5114 83.594 65.9541 83.4744 66.4608 83.4744C66.7685 83.4744 67.0668 83.5253 67.3556 83.6271C67.6445 83.7289 67.9037 83.8887 68.1333 84.1065C68.363 84.3243 68.5441 84.6072 68.6767 84.9553C68.8092 85.3009 68.8755 85.7211 68.8755 86.2159V86.5923H64.5396V85.7969H67.835C67.835 85.5175 67.7782 85.2701 67.6646 85.0547C67.551 84.8369 67.3912 84.6652 67.1852 84.5398C66.9816 84.4143 66.7425 84.3516 66.4679 84.3516C66.1696 84.3516 65.9092 84.425 65.6866 84.5717C65.4664 84.7161 65.296 84.9055 65.1752 85.1399C65.0569 85.3719 64.9977 85.6241 64.9977 85.8963V86.5178C64.9977 86.8823 65.0616 87.1925 65.1895 87.4482C65.3197 87.7038 65.5008 87.8991 65.7328 88.0341C65.9648 88.1667 66.2359 88.233 66.546 88.233C66.7472 88.233 66.9307 88.2045 67.0964 88.1477C67.2621 88.0885 67.4054 88.0009 67.5261 87.8849C67.6468 87.7689 67.7392 87.6257 67.8031 87.4553L68.8081 87.6364C68.7276 87.9323 68.5832 88.1915 68.3748 88.4141C68.1689 88.6342 67.9096 88.8059 67.5971 88.929C67.287 89.0497 66.9331 89.1101 66.5353 89.1101ZM71.1154 85.7614V89H70.0536V83.5455H71.0728V84.4332H71.1403C71.2657 84.1444 71.4622 83.9124 71.7298 83.7372C71.9996 83.562 72.3394 83.4744 72.7489 83.4744C73.1206 83.4744 73.4461 83.5526 73.7255 83.7088C74.0049 83.8627 74.2215 84.0923 74.3754 84.3977C74.5292 84.7031 74.6062 85.0807 74.6062 85.5305V89H73.5444V85.6584C73.5444 85.263 73.4414 84.9541 73.2354 84.7315C73.0295 84.5066 72.7466 84.3942 72.3867 84.3942C72.1405 84.3942 71.9215 84.4474 71.7298 84.554C71.5404 84.6605 71.39 84.8168 71.2788 85.0227C71.1699 85.2263 71.1154 85.4725 71.1154 85.7614ZM77.092 85.7614V89H76.0302V81.7273H77.0778V84.4332H77.1452C77.2731 84.1397 77.4684 83.9065 77.7312 83.7337C77.994 83.5608 78.3372 83.4744 78.761 83.4744C79.1351 83.4744 79.4618 83.5514 79.7411 83.7053C80.0228 83.8591 80.2406 84.0888 80.3945 84.3942C80.5508 84.6972 80.6289 85.076 80.6289 85.5305V89H79.5671V85.6584C79.5671 85.2583 79.4641 84.9482 79.2582 84.728C79.0522 84.5054 78.7657 84.3942 78.3988 84.3942C78.1478 84.3942 77.9229 84.4474 77.7241 84.554C77.5276 84.6605 77.3725 84.8168 77.2589 85.0227C77.1476 85.2263 77.092 85.4725 77.092 85.7614ZM85.5011 86.7379V83.5455H86.5664V89H85.5224V88.0554H85.4656C85.3401 88.3466 85.1388 88.5893 84.8619 88.7834C84.5872 88.9751 84.2451 89.071 83.8356 89.071C83.4852 89.071 83.1751 88.9941 82.9052 88.8402C82.6377 88.6839 82.427 88.4531 82.2731 88.1477C82.1216 87.8423 82.0458 87.4647 82.0458 87.0149V83.5455H83.1076V86.8871C83.1076 87.2588 83.2106 87.5547 83.4165 87.7749C83.6225 87.995 83.89 88.1051 84.2191 88.1051C84.418 88.1051 84.6156 88.0554 84.8121 87.956C85.011 87.8565 85.1755 87.7062 85.3058 87.505C85.4383 87.3037 85.5034 87.0481 85.5011 86.7379ZM87.9931 89V83.5455H89.0123V84.4332H89.0797C89.1934 84.1326 89.3792 83.8982 89.6373 83.7301C89.8953 83.5597 90.2042 83.4744 90.5641 83.4744C90.9287 83.4744 91.2341 83.5597 91.4803 83.7301C91.7289 83.9006 91.9123 84.1349 92.0307 84.4332H92.0875C92.2177 84.142 92.4249 83.91 92.709 83.7372C92.9931 83.562 93.3316 83.4744 93.7246 83.4744C94.2194 83.4744 94.623 83.6295 94.9355 83.9396C95.2504 84.2498 95.4078 84.7173 95.4078 85.3423V89H94.3461V85.4418C94.3461 85.0724 94.2454 84.8049 94.0442 84.6392C93.843 84.4735 93.6027 84.3906 93.3233 84.3906C92.9777 84.3906 92.709 84.4972 92.5172 84.7102C92.3255 84.9209 92.2296 85.192 92.2296 85.5234V89H91.1713V85.3743C91.1713 85.0784 91.079 84.8404 90.8944 84.6605C90.7097 84.4806 90.4694 84.3906 90.1735 84.3906C89.9722 84.3906 89.7864 84.4439 89.6159 84.5504C89.4479 84.6546 89.3117 84.8002 89.2076 84.9872C89.1058 85.1742 89.0549 85.3909 89.0549 85.6371V89H87.9931ZM101.065 89.1207C100.719 89.1207 100.407 89.0568 100.127 88.929C99.848 88.7988 99.6266 88.6106 99.4632 88.3643C99.3023 88.1181 99.2218 87.8163 99.2218 87.4588C99.2218 87.151 99.281 86.8977 99.3993 86.6989C99.5177 86.5 99.6775 86.3426 99.8787 86.2266C100.08 86.1106 100.305 86.023 100.553 85.9638C100.802 85.9046 101.055 85.8596 101.313 85.8288C101.64 85.791 101.905 85.7602 102.109 85.7365C102.312 85.7105 102.46 85.669 102.553 85.6122C102.645 85.5554 102.691 85.4631 102.691 85.3352V85.3104C102.691 85.0002 102.604 84.7599 102.428 84.5895C102.256 84.419 101.998 84.3338 101.654 84.3338C101.297 84.3338 101.015 84.4131 100.809 84.5717C100.606 84.728 100.465 84.902 100.387 85.0938L99.3887 84.8665C99.507 84.535 99.6799 84.2675 99.9071 84.0639C100.137 83.858 100.401 83.7088 100.699 83.6165C100.997 83.5218 101.311 83.4744 101.64 83.4744C101.858 83.4744 102.089 83.5005 102.333 83.5526C102.579 83.6023 102.808 83.6946 103.021 83.8295C103.237 83.9645 103.413 84.1574 103.551 84.4084C103.688 84.657 103.757 84.9801 103.757 85.3778V89H102.72V88.2543H102.677C102.608 88.3916 102.505 88.5265 102.368 88.6591C102.231 88.7917 102.054 88.9018 101.839 88.9893C101.624 89.0769 101.365 89.1207 101.065 89.1207ZM101.296 88.2685C101.589 88.2685 101.84 88.2105 102.048 88.0945C102.259 87.9785 102.419 87.8269 102.528 87.6399C102.639 87.4505 102.695 87.2481 102.695 87.0327V86.3295C102.657 86.3674 102.584 86.4029 102.475 86.4361C102.368 86.4669 102.246 86.4941 102.109 86.5178C101.972 86.5391 101.838 86.5592 101.708 86.5781C101.577 86.5947 101.468 86.6089 101.381 86.6207C101.175 86.6468 100.987 86.6906 100.816 86.7521C100.648 86.8137 100.513 86.9025 100.411 87.0185C100.312 87.1321 100.262 87.2836 100.262 87.473C100.262 87.7358 100.359 87.9347 100.553 88.0696C100.748 88.2022 100.995 88.2685 101.296 88.2685ZM105.171 89V83.5455H106.197V84.4119H106.254C106.353 84.1184 106.529 83.8875 106.779 83.7195C107.033 83.549 107.319 83.4638 107.639 83.4638C107.705 83.4638 107.783 83.4661 107.873 83.4709C107.966 83.4756 108.038 83.4815 108.09 83.4886V84.5043C108.047 84.4924 107.971 84.4794 107.863 84.4652C107.754 84.4486 107.645 84.4403 107.536 84.4403C107.285 84.4403 107.061 84.4936 106.865 84.6001C106.671 84.7043 106.517 84.8499 106.403 85.0369C106.289 85.2216 106.233 85.4323 106.233 85.669V89H105.171ZM112.496 91.0455V88.1513H112.432C112.368 88.2673 112.276 88.3999 112.155 88.549C112.037 88.6982 111.873 88.8284 111.665 88.9396C111.457 89.0509 111.187 89.1065 110.855 89.1065C110.415 89.1065 110.022 88.9941 109.676 88.7692C109.333 88.5419 109.063 88.2187 108.867 87.7997C108.673 87.3783 108.575 86.8729 108.575 86.2834C108.575 85.6939 108.674 85.1896 108.87 84.7706C109.069 84.3516 109.341 84.0308 109.687 83.8082C110.033 83.5857 110.424 83.4744 110.862 83.4744C111.201 83.4744 111.473 83.5312 111.679 83.6449C111.887 83.7562 112.048 83.8864 112.162 84.0355C112.278 84.1847 112.368 84.3161 112.432 84.4297H112.521V83.5455H113.558V91.0455H112.496ZM111.09 88.201C111.395 88.201 111.653 88.1205 111.864 87.9595C112.077 87.7962 112.238 87.5701 112.347 87.2812C112.458 86.9924 112.514 86.6562 112.514 86.2727C112.514 85.8939 112.459 85.5625 112.35 85.2784C112.241 84.9943 112.082 84.773 111.871 84.6143C111.66 84.4557 111.4 84.3764 111.09 84.3764C110.77 84.3764 110.504 84.4593 110.291 84.625C110.078 84.7907 109.917 85.0168 109.808 85.3033C109.701 85.5897 109.648 85.9129 109.648 86.2727C109.648 86.6373 109.702 86.9652 109.811 87.2564C109.92 87.5476 110.081 87.7784 110.294 87.9489C110.51 88.117 110.775 88.201 111.09 88.201ZM118.441 86.7379V83.5455H119.506V89H118.462V88.0554H118.405C118.28 88.3466 118.078 88.5893 117.801 88.7834C117.527 88.9751 117.185 89.071 116.775 89.071C116.425 89.071 116.115 88.9941 115.845 88.8402C115.577 88.6839 115.366 88.4531 115.213 88.1477C115.061 87.8423 114.985 87.4647 114.985 87.0149V83.5455H116.047V86.8871C116.047 87.2588 116.15 87.5547 116.356 87.7749C116.562 87.995 116.829 88.1051 117.159 88.1051C117.357 88.1051 117.555 88.0554 117.752 87.956C117.95 87.8565 118.115 87.7062 118.245 87.505C118.378 87.3037 118.443 87.0481 118.441 86.7379ZM120.933 89V83.5455H121.994V89H120.933ZM121.469 82.7038C121.284 82.7038 121.125 82.6423 120.993 82.5192C120.863 82.3937 120.798 82.2446 120.798 82.0717C120.798 81.8965 120.863 81.7474 120.993 81.6243C121.125 81.4988 121.284 81.4361 121.469 81.4361C121.653 81.4361 121.811 81.4988 121.941 81.6243C122.074 81.7474 122.14 81.8965 122.14 82.0717C122.14 82.2446 122.074 82.3937 121.941 82.5192C121.811 82.6423 121.653 82.7038 121.469 82.7038ZM128.089 83.5455L126.111 89H124.975L122.993 83.5455H124.133L125.514 87.7429H125.571L126.949 83.5455H128.089ZM131.199 89.1101C130.688 89.1101 130.241 88.9929 129.86 88.7585C129.479 88.5241 129.183 88.1963 128.972 87.7749C128.762 87.3535 128.656 86.861 128.656 86.2976C128.656 85.7318 128.762 85.237 128.972 84.8132C129.183 84.3894 129.479 84.0604 129.86 83.826C130.241 83.5916 130.688 83.4744 131.199 83.4744C131.71 83.4744 132.156 83.5916 132.538 83.826C132.919 84.0604 133.215 84.3894 133.425 84.8132C133.636 85.237 133.741 85.7318 133.741 86.2976C133.741 86.861 133.636 87.3535 133.425 87.7749C133.215 88.1963 132.919 88.5241 132.538 88.7585C132.156 88.9929 131.71 89.1101 131.199 89.1101ZM131.202 88.2188C131.534 88.2188 131.808 88.1312 132.026 87.956C132.244 87.7808 132.405 87.5476 132.509 87.2564C132.616 86.9652 132.669 86.6444 132.669 86.294C132.669 85.946 132.616 85.6264 132.509 85.3352C132.405 85.0417 132.244 84.8061 132.026 84.6286C131.808 84.451 131.534 84.3622 131.202 84.3622C130.869 84.3622 130.592 84.451 130.371 84.6286C130.154 84.8061 129.991 85.0417 129.885 85.3352C129.781 85.6264 129.729 85.946 129.729 86.294C129.729 86.6444 129.781 86.9652 129.885 87.2564C129.991 87.5476 130.154 87.7808 130.371 87.956C130.592 88.1312 130.869 88.2188 131.202 88.2188ZM139.924 89.1101C139.387 89.1101 138.924 88.9953 138.536 88.7656C138.15 88.5336 137.851 88.2081 137.641 87.7891C137.432 87.3677 137.328 86.8741 137.328 86.3082C137.328 85.7495 137.432 85.2571 137.641 84.831C137.851 84.4048 138.145 84.0722 138.521 83.8331C138.9 83.594 139.343 83.4744 139.849 83.4744C140.157 83.4744 140.455 83.5253 140.744 83.6271C141.033 83.7289 141.292 83.8887 141.522 84.1065C141.752 84.3243 141.933 84.6072 142.065 84.9553C142.198 85.3009 142.264 85.7211 142.264 86.2159V86.5923H137.928V85.7969H141.224C141.224 85.5175 141.167 85.2701 141.053 85.0547C140.94 84.8369 140.78 84.6652 140.574 84.5398C140.37 84.4143 140.131 84.3516 139.857 84.3516C139.558 84.3516 139.298 84.425 139.075 84.5717C138.855 84.7161 138.685 84.9055 138.564 85.1399C138.446 85.3719 138.386 85.6241 138.386 85.8963V86.5178C138.386 86.8823 138.45 87.1925 138.578 87.4482C138.708 87.7038 138.889 87.8991 139.121 88.0341C139.353 88.1667 139.625 88.233 139.935 88.233C140.136 88.233 140.319 88.2045 140.485 88.1477C140.651 88.0885 140.794 88.0009 140.915 87.8849C141.036 87.7689 141.128 87.6257 141.192 87.4553L142.197 87.6364C142.116 87.9323 141.972 88.1915 141.763 88.4141C141.558 88.6342 141.298 88.8059 140.986 88.929C140.676 89.0497 140.322 89.1101 139.924 89.1101ZM144.504 85.7614V89H143.442V83.5455H144.461V84.4332H144.529C144.654 84.1444 144.851 83.9124 145.118 83.7372C145.388 83.562 145.728 83.4744 146.138 83.4744C146.509 83.4744 146.835 83.5526 147.114 83.7088C147.394 83.8627 147.61 84.0923 147.764 84.3977C147.918 84.7031 147.995 85.0807 147.995 85.5305V89H146.933V85.6584C146.933 85.263 146.83 84.9541 146.624 84.7315C146.418 84.5066 146.135 84.3942 145.775 84.3942C145.529 84.3942 145.31 84.4474 145.118 84.554C144.929 84.6605 144.779 84.8168 144.667 85.0227C144.559 85.2263 144.504 85.4725 144.504 85.7614ZM151.716 89.1101C151.189 89.1101 150.734 88.9905 150.353 88.7514C149.974 88.5099 149.683 88.1773 149.479 87.7536C149.276 87.3298 149.174 86.8445 149.174 86.2976C149.174 85.7436 149.278 85.2547 149.486 84.831C149.695 84.4048 149.988 84.0722 150.367 83.8331C150.746 83.594 151.192 83.4744 151.706 83.4744C152.12 83.4744 152.489 83.5514 152.814 83.7053C153.138 83.8568 153.4 84.0698 153.599 84.3445C153.8 84.6191 153.919 84.9399 153.957 85.3068H152.924C152.867 85.0511 152.737 84.831 152.533 84.6463C152.332 84.4616 152.062 84.3693 151.724 84.3693C151.428 84.3693 151.168 84.4474 150.946 84.6037C150.726 84.7576 150.554 84.9777 150.431 85.2642C150.308 85.5483 150.246 85.8845 150.246 86.2727C150.246 86.6705 150.307 87.0137 150.427 87.3026C150.548 87.5914 150.719 87.8151 150.939 87.9737C151.161 88.1323 151.423 88.2116 151.724 88.2116C151.925 88.2116 152.107 88.175 152.27 88.1016C152.436 88.0258 152.575 87.9181 152.686 87.7784C152.8 87.6387 152.879 87.4706 152.924 87.2741H153.957C153.919 87.6269 153.805 87.9418 153.613 88.2188C153.421 88.4957 153.164 88.7135 152.842 88.8722C152.523 89.0308 152.147 89.1101 151.716 89.1101ZM157.39 89.1101C156.879 89.1101 156.433 88.9929 156.051 88.7585C155.67 88.5241 155.374 88.1963 155.164 87.7749C154.953 87.3535 154.848 86.861 154.848 86.2976C154.848 85.7318 154.953 85.237 155.164 84.8132C155.374 84.3894 155.67 84.0604 156.051 83.826C156.433 83.5916 156.879 83.4744 157.39 83.4744C157.902 83.4744 158.348 83.5916 158.729 83.826C159.11 84.0604 159.406 84.3894 159.617 84.8132C159.828 85.237 159.933 85.7318 159.933 86.2976C159.933 86.861 159.828 87.3535 159.617 87.7749C159.406 88.1963 159.11 88.5241 158.729 88.7585C158.348 88.9929 157.902 89.1101 157.39 89.1101ZM157.394 88.2188C157.725 88.2188 158 88.1312 158.218 87.956C158.435 87.7808 158.596 87.5476 158.701 87.2564C158.807 86.9652 158.86 86.6444 158.86 86.294C158.86 85.946 158.807 85.6264 158.701 85.3352C158.596 85.0417 158.435 84.8061 158.218 84.6286C158 84.451 157.725 84.3622 157.394 84.3622C157.06 84.3622 156.783 84.451 156.563 84.6286C156.345 84.8061 156.183 85.0417 156.076 85.3352C155.972 85.6264 155.92 85.946 155.92 86.294C155.92 86.6444 155.972 86.9652 156.076 87.2564C156.183 87.5476 156.345 87.7808 156.563 87.956C156.783 88.1312 157.06 88.2188 157.394 88.2188ZM162.18 85.7614V89H161.118V83.5455H162.137V84.4332H162.205C162.33 84.1444 162.527 83.9124 162.794 83.7372C163.064 83.562 163.404 83.4744 163.813 83.4744C164.185 83.4744 164.511 83.5526 164.79 83.7088C165.069 83.8627 165.286 84.0923 165.44 84.3977C165.594 84.7031 165.671 85.0807 165.671 85.5305V89H164.609V85.6584C164.609 85.263 164.506 84.9541 164.3 84.7315C164.094 84.5066 163.811 84.3942 163.451 84.3942C163.205 84.3942 162.986 84.4474 162.794 84.554C162.605 84.6605 162.454 84.8168 162.343 85.0227C162.234 85.2263 162.18 85.4725 162.18 85.7614ZM169.641 83.5455V84.3977H166.661V83.5455H169.641ZM167.46 82.2386H168.522V87.3984C168.522 87.6044 168.553 87.7595 168.615 87.8636C168.676 87.9654 168.755 88.0353 168.852 88.0732C168.952 88.1087 169.06 88.1264 169.176 88.1264C169.261 88.1264 169.335 88.1205 169.399 88.1087C169.463 88.0968 169.513 88.0874 169.548 88.0803L169.74 88.9574C169.679 88.9811 169.591 89.0047 169.477 89.0284C169.364 89.0545 169.222 89.0687 169.051 89.071C168.772 89.0758 168.512 89.026 168.27 88.9219C168.029 88.8177 167.833 88.6567 167.684 88.4389C167.535 88.2211 167.46 87.9477 167.46 87.6186V82.2386ZM170.815 89V83.5455H171.842V84.4119H171.898C171.998 84.1184 172.173 83.8875 172.424 83.7195C172.677 83.549 172.964 83.4638 173.283 83.4638C173.35 83.4638 173.428 83.4661 173.518 83.4709C173.61 83.4756 173.682 83.4815 173.734 83.4886V84.5043C173.692 84.4924 173.616 84.4794 173.507 84.4652C173.398 84.4486 173.289 84.4403 173.18 84.4403C172.929 84.4403 172.706 84.4936 172.509 84.6001C172.315 84.7043 172.161 84.8499 172.048 85.0369C171.934 85.2216 171.877 85.4323 171.877 85.669V89H170.815ZM176.192 89.1207C175.846 89.1207 175.534 89.0568 175.254 88.929C174.975 88.7988 174.754 88.6106 174.59 88.3643C174.429 88.1181 174.349 87.8163 174.349 87.4588C174.349 87.151 174.408 86.8977 174.526 86.6989C174.645 86.5 174.804 86.3426 175.006 86.2266C175.207 86.1106 175.432 86.023 175.68 85.9638C175.929 85.9046 176.182 85.8596 176.44 85.8288C176.767 85.791 177.032 85.7602 177.236 85.7365C177.439 85.7105 177.587 85.669 177.68 85.6122C177.772 85.5554 177.818 85.4631 177.818 85.3352V85.3104C177.818 85.0002 177.731 84.7599 177.555 84.5895C177.383 84.419 177.125 84.3338 176.781 84.3338C176.424 84.3338 176.142 84.4131 175.936 84.5717C175.732 84.728 175.592 84.902 175.513 85.0938L174.516 84.8665C174.634 84.535 174.807 84.2675 175.034 84.0639C175.264 83.858 175.528 83.7088 175.826 83.6165C176.124 83.5218 176.438 83.4744 176.767 83.4744C176.985 83.4744 177.216 83.5005 177.46 83.5526C177.706 83.6023 177.935 83.6946 178.148 83.8295C178.364 83.9645 178.54 84.1574 178.678 84.4084C178.815 84.657 178.884 84.9801 178.884 85.3778V89H177.847V88.2543H177.804C177.735 88.3916 177.632 88.5265 177.495 88.6591C177.358 88.7917 177.181 88.9018 176.966 88.9893C176.75 89.0769 176.492 89.1207 176.192 89.1207ZM176.423 88.2685C176.716 88.2685 176.967 88.2105 177.175 88.0945C177.386 87.9785 177.546 87.8269 177.655 87.6399C177.766 87.4505 177.822 87.2481 177.822 87.0327V86.3295C177.784 86.3674 177.71 86.4029 177.602 86.4361C177.495 86.4669 177.373 86.4941 177.236 86.5178C177.098 86.5391 176.965 86.5592 176.835 86.5781C176.704 86.5947 176.595 86.6089 176.508 86.6207C176.302 86.6468 176.114 86.6906 175.943 86.7521C175.775 86.8137 175.64 86.9025 175.538 87.0185C175.439 87.1321 175.389 87.2836 175.389 87.473C175.389 87.7358 175.486 87.9347 175.68 88.0696C175.875 88.2022 176.122 88.2685 176.423 88.2685ZM182.34 89.1065C181.899 89.1065 181.506 88.9941 181.161 88.7692C180.817 88.5419 180.548 88.2187 180.351 87.7997C180.157 87.3783 180.06 86.8729 180.06 86.2834C180.06 85.6939 180.158 85.1896 180.355 84.7706C180.553 84.3516 180.826 84.0308 181.171 83.8082C181.517 83.5857 181.909 83.4744 182.347 83.4744C182.685 83.4744 182.958 83.5312 183.164 83.6449C183.372 83.7562 183.533 83.8864 183.646 84.0355C183.762 84.1847 183.852 84.3161 183.916 84.4297H183.98V81.7273H185.042V89H184.005V88.1513H183.916C183.852 88.2673 183.76 88.3999 183.639 88.549C183.521 88.6982 183.358 88.8284 183.149 88.9396C182.941 89.0509 182.671 89.1065 182.34 89.1065ZM182.574 88.201C182.879 88.201 183.137 88.1205 183.348 87.9595C183.561 87.7962 183.722 87.5701 183.831 87.2812C183.942 86.9924 183.998 86.6562 183.998 86.2727C183.998 85.8939 183.944 85.5625 183.835 85.2784C183.726 84.9943 183.566 84.773 183.355 84.6143C183.145 84.4557 182.884 84.3764 182.574 84.3764C182.254 84.3764 181.988 84.4593 181.775 84.625C181.562 84.7907 181.401 85.0168 181.292 85.3033C181.186 85.5897 181.132 85.9129 181.132 86.2727C181.132 86.6373 181.187 86.9652 181.296 87.2564C181.405 87.5476 181.566 87.7784 181.779 87.9489C181.994 88.117 182.259 88.201 182.574 88.201ZM188.855 89.1101C188.344 89.1101 187.897 88.9929 187.516 88.7585C187.135 88.5241 186.839 88.1963 186.629 87.7749C186.418 87.3535 186.312 86.861 186.312 86.2976C186.312 85.7318 186.418 85.237 186.629 84.8132C186.839 84.3894 187.135 84.0604 187.516 83.826C187.897 83.5916 188.344 83.4744 188.855 83.4744C189.366 83.4744 189.813 83.5916 190.194 83.826C190.575 84.0604 190.871 84.3894 191.082 84.8132C191.292 85.237 191.398 85.7318 191.398 86.2976C191.398 86.861 191.292 87.3535 191.082 87.7749C190.871 88.1963 190.575 88.5241 190.194 88.7585C189.813 88.9929 189.366 89.1101 188.855 89.1101ZM188.859 88.2188C189.19 88.2188 189.465 88.1312 189.683 87.956C189.9 87.7808 190.061 87.5476 190.165 87.2564C190.272 86.9652 190.325 86.6444 190.325 86.294C190.325 85.946 190.272 85.6264 190.165 85.3352C190.061 85.0417 189.9 84.8061 189.683 84.6286C189.465 84.451 189.19 84.3622 188.859 84.3622C188.525 84.3622 188.248 84.451 188.028 84.6286C187.81 84.8061 187.648 85.0417 187.541 85.3352C187.437 85.6264 187.385 85.946 187.385 86.294C187.385 86.6444 187.437 86.9652 187.541 87.2564C187.648 87.5476 187.81 87.7808 188.028 87.956C188.248 88.1312 188.525 88.2188 188.859 88.2188ZM193.922 81.7273L193.829 86.9084H192.846L192.753 81.7273H193.922ZM193.339 89.0675C193.143 89.0675 192.975 88.9988 192.835 88.8615C192.695 88.7218 192.627 88.5537 192.629 88.3572C192.627 88.1631 192.695 87.9974 192.835 87.8601C192.975 87.7204 193.143 87.6506 193.339 87.6506C193.531 87.6506 193.697 87.7204 193.836 87.8601C193.976 87.9974 194.047 88.1631 194.05 88.3572C194.047 88.4875 194.013 88.607 193.947 88.7159C193.883 88.8224 193.797 88.9077 193.691 88.9716C193.584 89.0355 193.467 89.0675 193.339 89.0675Z" fill="#343434"/>
</svg>
