<svg width="23" height="41" viewBox="0 0 23 41" fill="none" xmlns="http://www.w3.org/2000/svg">
<path d="M13.4746 0.189706C11.8273 -0.11796 10.1341 -0.0507435 8.51496 0.3866C6.89578 0.823944 5.39016 1.62073 4.10464 2.72056C2.81913 3.82039 1.78513 5.1964 1.07583 6.75121C0.366526 8.30601 -0.000746437 10.0016 1.13897e-06 11.718C1.13897e-06 12.4946 0.300965 13.2394 0.836683 13.7886C1.3724 14.3377 2.09899 14.6462 2.85661 14.6462C3.61423 14.6462 4.34082 14.3377 4.87654 13.7886C5.41226 13.2394 5.71322 12.4946 5.71322 11.718C5.7125 10.8565 5.89723 10.0054 6.25424 9.22542C6.61125 8.44545 7.13174 7.75584 7.7786 7.20575C8.42546 6.65566 9.18276 6.25865 9.99649 6.04301C10.8102 5.82738 11.6603 5.79844 12.4862 5.95826C13.6147 6.1828 14.6523 6.74707 15.4664 7.57898C16.2805 8.41089 16.8342 9.47269 17.0568 10.6287C17.2816 11.8422 17.1264 13.0974 16.6133 14.215C16.1003 15.3326 15.2556 16.2553 14.2002 16.8512C12.4524 17.8891 11.0082 19.3885 10.0179 21.1931C9.02764 22.9977 8.52758 25.0415 8.56983 27.1116V29.2872C8.56983 30.0638 8.87079 30.8086 9.40651 31.3578C9.94223 31.9069 10.6688 32.2154 11.4264 32.2154C12.1841 32.2154 12.9106 31.9069 13.4464 31.3578C13.9821 30.8086 14.283 30.0638 14.283 29.2872V27.1116C14.2472 26.0926 14.4739 25.0819 14.9403 24.1813C15.4066 23.2807 16.0963 22.5219 16.9397 21.9814C19.0093 20.8161 20.676 19.0223 21.7105 16.8465C22.7449 14.6707 23.0964 12.2198 22.7166 9.83087C22.3367 7.44195 21.2442 5.23233 19.5892 3.50587C17.9342 1.77942 15.7981 0.620923 13.4746 0.189706Z" fill="#525252"/>
<path d="M14.2835 38.0718C14.2835 36.4546 13.0046 35.1436 11.4269 35.1436C9.84926 35.1436 8.57031 36.4546 8.57031 38.0718C8.57031 39.689 9.84926 41 11.4269 41C13.0046 41 14.2835 39.689 14.2835 38.0718Z" fill="#525252"/>
</svg>
