<svg width="19" height="19" viewBox="0 0 19 19" fill="none" xmlns="http://www.w3.org/2000/svg">
<path d="M9.5 0C4.26154 0 0 4.26154 0 9.5C0 14.7385 4.26154 19 9.5 19H19V9.5C19 4.26154 14.7385 0 9.5 0ZM17.4167 17.4167H9.5C5.13475 17.4167 1.58333 13.8653 1.58333 9.5C1.58333 5.13475 5.13475 1.58333 9.5 1.58333C13.8653 1.58333 17.4167 5.13475 17.4167 9.5V17.4167ZM10.6875 9.5C10.6875 10.1555 10.1555 10.6875 9.5 10.6875C8.8445 10.6875 8.3125 10.1555 8.3125 9.5C8.3125 8.8445 8.8445 8.3125 9.5 8.3125C10.1555 8.3125 10.6875 8.8445 10.6875 9.5ZM14.6458 9.5C14.6458 10.1555 14.1138 10.6875 13.4583 10.6875C12.8028 10.6875 12.2708 10.1555 12.2708 9.5C12.2708 8.8445 12.8028 8.3125 13.4583 8.3125C14.1138 8.3125 14.6458 8.8445 14.6458 9.5ZM6.72917 9.5C6.72917 10.1555 6.19717 10.6875 5.54167 10.6875C4.88617 10.6875 4.35417 10.1555 4.35417 9.5C4.35417 8.8445 4.88617 8.3125 5.54167 8.3125C6.19717 8.3125 6.72917 8.8445 6.72917 9.5Z" fill="black"/>
</svg>
