<svg width="36" height="34" viewBox="0 0 36 34" fill="none" xmlns="http://www.w3.org/2000/svg">
<path d="M25.623 24.6362C24.9102 24.8272 24.1575 24.4466 23.8842 23.742C23.0136 21.5072 21.4987 19.6284 16.3487 21.0084L8.60114 23.0843C5.49367 23.9169 2.28116 22.0361 1.43835 18.8907L1.05629 17.4648C0.21348 14.3194 2.05518 11.0843 5.16264 10.2517L12.9102 8.17572C18.0602 6.79578 18.4328 4.41125 18.0693 2.04057C17.9511 1.26687 18.4116 0.545933 19.2091 0.378095C19.9654 0.219777 20.7177 0.689084 20.9206 1.44621L26.6514 22.8339C26.8543 23.5911 26.437 24.3722 25.7033 24.6147C25.6751 24.6222 25.6498 24.629 25.623 24.6362ZM33.9156 18.0695C35.4667 15.3447 35.8712 12.1661 35.0547 9.11909C34.2383 6.07206 32.2987 3.52156 29.593 1.93742C28.8928 1.52749 28.0026 1.76604 27.6012 2.47113C27.1994 3.17479 27.4412 4.07735 28.1414 4.48728C30.1703 5.67512 31.625 7.58835 32.2374 9.87398C32.8499 12.1596 32.5463 14.5425 31.3835 16.587C30.9821 17.2921 31.224 18.1947 31.9237 18.6032C32.6239 19.0131 33.5142 18.7746 33.9156 18.0695ZM28.8053 15.5632C30.572 12.4597 29.5023 8.46736 26.4205 6.66306C25.7203 6.25313 24.8301 6.49168 24.4287 7.19677C24.0273 7.90185 24.2687 8.80299 24.9689 9.21292C26.6539 10.1995 27.2392 12.3839 26.2732 14.0808C25.8718 14.7859 26.1133 15.687 26.8134 16.0969C27.5136 16.5068 28.4039 16.2683 28.8053 15.5632ZM16.1112 24.1284L9.36525 25.936C8.93843 26.0504 8.51001 26.1193 8.08366 26.1678L12.6613 31.887C13.5966 33.0561 15.1246 33.5636 16.5572 33.1798C19.1674 32.4804 20.1953 29.3013 18.5038 27.1581L16.113 24.1295L16.1112 24.1284Z" fill="#D9D9D9"/>
</svg>
