<svg width="27" height="26" viewBox="0 0 27 26" fill="none" xmlns="http://www.w3.org/2000/svg">
<path fill-rule="evenodd" clip-rule="evenodd" d="M23.0673 3.76014C20.5284 1.33675 17.1529 0.00107802 13.5571 0C6.14721 0 0.116433 5.75016 0.113042 12.8198C0.111911 15.0794 0.731379 17.285 1.90814 19.2297L0 25.8725L7.12615 24.0894C9.08968 25.1114 11.3008 25.6493 13.5503 25.6504H13.556C20.9647 25.6504 26.9966 19.8992 27 12.8295C27.0023 9.40465 25.6051 6.18245 23.0673 3.76014ZM13.5571 23.4847H13.5526C11.5472 23.4847 9.58141 22.9705 7.86544 21.9992L7.45736 21.7685L3.22847 22.826L4.35776 18.8934L4.09211 18.4902C2.973 16.7934 2.38292 14.8325 2.38405 12.8198C2.38631 6.94461 7.39971 2.16467 13.5627 2.16467C16.547 2.16467 19.3527 3.27503 21.4621 5.28877C23.5714 7.30359 24.7324 9.98031 24.7313 12.8274C24.7279 18.7047 19.7156 23.4847 13.5571 23.4847ZM19.6862 15.5041C19.3505 15.3435 17.6989 14.5684 17.3903 14.4616C17.0829 14.3549 16.859 14.301 16.6341 14.6212C16.4091 14.9414 15.767 15.6636 15.5704 15.8782C15.3748 16.0916 15.1781 16.1186 14.8424 15.9579C14.5066 15.7973 13.4237 15.4599 12.1407 14.3679C11.1425 13.5184 10.4677 12.4695 10.2721 12.1482C10.0765 11.827 10.2517 11.6545 10.419 11.4949C10.5705 11.3516 10.7548 11.1209 10.9232 10.9333C11.0928 10.7479 11.1482 10.6142 11.2612 10.3997C11.3731 10.1862 11.3177 9.99864 11.2329 9.83802C11.1482 9.67847 10.4767 8.10133 10.1975 7.4599C9.92506 6.83465 9.64811 6.91981 9.44124 6.91011C9.24568 6.90041 9.02185 6.89933 8.7969 6.89933C8.57308 6.89933 8.20908 6.9791 7.90161 7.30035C7.59414 7.62161 6.72598 8.3967 6.72598 9.97277C6.72598 11.5499 7.92987 13.0732 8.09717 13.2866C8.26447 13.5001 10.4654 16.7363 13.8352 18.1237C14.6366 18.4536 15.2629 18.6508 15.7501 18.7985C16.5549 19.0422 17.2875 19.0077 17.8662 18.9257C18.5117 18.8341 19.8535 18.1506 20.1339 17.4025C20.4142 16.6543 20.4142 16.0118 20.3294 15.8792C20.2458 15.7445 20.0219 15.6647 19.6862 15.5041Z" fill="white"/>
</svg>
